<svg width="21" height="16" viewBox="0 0 21 16" fill="none" xmlns="http://www.w3.org/2000/svg">
<path d="M17.0952 1.39597C15.8487 0.814867 14.499 0.393101 13.0932 0.149414C13.0684 0.149766 13.0448 0.159873 13.0275 0.177532C12.8588 0.486827 12.662 0.889847 12.5308 1.19914C11.0396 0.974342 9.52315 0.974342 8.03196 1.19914C7.90074 0.880475 7.70392 0.486827 7.52584 0.177532C7.51647 0.158787 7.48835 0.149414 7.46023 0.149414C6.05435 0.393101 4.71407 0.814867 3.45814 1.39597C3.44877 1.39597 3.4394 1.40534 3.43003 1.41471C0.880685 5.22935 0.177742 8.94089 0.524527 12.6149C0.524527 12.6337 0.5339 12.6524 0.552645 12.6618C2.23971 13.899 3.86116 14.6488 5.46387 15.1455C5.49199 15.1549 5.52011 15.1455 5.52948 15.1268C5.90439 14.6113 6.2418 14.0677 6.53235 13.496C6.55109 13.4585 6.53235 13.421 6.49486 13.4116C5.96062 13.2054 5.4545 12.9617 4.95776 12.6805C4.92027 12.6618 4.92026 12.6056 4.94838 12.5774C5.05148 12.5025 5.15458 12.4181 5.25768 12.3431C5.27642 12.3244 5.30454 12.3244 5.32329 12.3338C8.54745 13.8053 12.0247 13.8053 15.2114 12.3338C15.2301 12.3244 15.2582 12.3244 15.277 12.3431C15.3801 12.4275 15.4832 12.5025 15.5863 12.5868C15.6237 12.6149 15.6237 12.6712 15.5769 12.6899C15.0895 12.9805 14.574 13.2148 14.0398 13.421C14.0023 13.4304 13.9929 13.4772 14.0023 13.5053C14.3022 14.0771 14.6396 14.6207 15.0052 15.1362C15.0333 15.1455 15.0614 15.1549 15.0895 15.1455C16.7016 14.6488 18.323 13.899 20.0101 12.6618C20.0289 12.6524 20.0382 12.6337 20.0382 12.6149C20.4506 8.36916 19.354 4.68574 17.1327 1.41471C17.1234 1.40534 17.114 1.39597 17.0952 1.39597ZM7.01972 10.3749C6.05435 10.3749 5.24831 9.4845 5.24831 8.38791C5.24831 7.29132 6.0356 6.40092 7.01972 6.40092C8.01322 6.40092 8.80051 7.30069 8.79114 8.38791C8.79114 9.4845 8.00384 10.3749 7.01972 10.3749ZM13.5524 10.3749C12.587 10.3749 11.781 9.4845 11.781 8.38791C11.781 7.29132 12.5683 6.40092 13.5524 6.40092C14.5459 6.40092 15.3332 7.30069 15.3238 8.38791C15.3238 9.4845 14.5459 10.3749 13.5524 10.3749Z" fill="#656C73"/>
</svg>
