<svg width="17" height="19" viewBox="0 0 17 19" fill="none" xmlns="http://www.w3.org/2000/svg">
<path d="M5.46315 18.1494V15.4534C5.46315 14.9561 5.61616 14.5237 5.86232 14.1328C6.03196 13.865 5.91554 13.4842 5.61034 13.401C3.0798 12.7041 1.30518 11.5856 1.30518 7.87506C1.30518 6.91041 1.62118 6.00397 2.17669 5.21396C2.31473 5.0177 2.38459 4.91957 2.40122 4.83142C2.41785 4.74161 2.38874 4.62602 2.33053 4.39317C2.09519 3.44848 2.11099 2.44475 2.46359 1.5408C2.46359 1.5408 3.1929 1.30214 4.85359 2.33913C5.2328 2.57614 5.4224 2.69506 5.58955 2.72167C5.7567 2.74828 5.97957 2.69256 6.42531 2.58113C7.06262 2.42312 7.71714 2.34518 8.37373 2.34911C9.03031 2.34631 9.68473 2.42452 10.3222 2.58196C10.7679 2.69339 10.9916 2.74828 11.1587 2.7225C11.3251 2.69589 11.5147 2.57697 11.8939 2.33997C13.5546 1.30297 14.2839 1.54164 14.2839 1.54164C14.6365 2.44558 14.6523 3.44931 14.4169 4.39401C14.3587 4.62685 14.3304 4.74328 14.3471 4.83142C14.3637 4.91957 14.4327 5.01853 14.5708 5.21479C15.1263 6.0048 15.4423 6.91124 15.4423 7.87589C15.4423 11.5865 13.6677 12.705 11.1371 13.4002C10.8319 13.4842 10.7155 13.865 10.8851 14.132C11.1313 14.5228 11.2843 14.9553 11.2843 15.4534V18.1494" stroke="#656C73" stroke-width="1.5" stroke-linecap="round" stroke-linejoin="round"/>
</svg>
