<svg width="17" height="17" viewBox="0 0 17 17" fill="none" xmlns="http://www.w3.org/2000/svg">
<path d="M8.81135 5.74941C8.17483 5.74941 7.56438 6.00227 7.11429 6.45236C6.6642 6.90244 6.41135 7.51289 6.41135 8.14941C6.41135 8.78593 6.6642 9.39638 7.11429 9.84647C7.56438 10.2966 8.17483 10.5494 8.81135 10.5494C9.44787 10.5494 10.0583 10.2966 10.5084 9.84647C10.9585 9.39638 11.2113 8.78593 11.2113 8.14941C11.2113 7.51289 10.9585 6.90244 10.5084 6.45236C10.0583 6.00227 9.44787 5.74941 8.81135 5.74941ZM8.81135 4.14941C9.87221 4.14941 10.8896 4.57084 11.6398 5.32099C12.3899 6.07113 12.8113 7.08855 12.8113 8.14941C12.8113 9.21028 12.3899 10.2277 11.6398 10.9778C10.8896 11.728 9.87221 12.1494 8.81135 12.1494C7.75048 12.1494 6.73307 11.728 5.98292 10.9778C5.23277 10.2277 4.81135 9.21028 4.81135 8.14941C4.81135 7.08855 5.23277 6.07113 5.98292 5.32099C6.73307 4.57084 7.75048 4.14941 8.81135 4.14941ZM14.0113 3.94941C14.0113 4.21463 13.906 4.46898 13.7185 4.65652C13.5309 4.84406 13.2766 4.94941 13.0113 4.94941C12.7461 4.94941 12.4918 4.84406 12.3042 4.65652C12.1167 4.46898 12.0113 4.21463 12.0113 3.94941C12.0113 3.6842 12.1167 3.42984 12.3042 3.24231C12.4918 3.05477 12.7461 2.94941 13.0113 2.94941C13.2766 2.94941 13.5309 3.05477 13.7185 3.24231C13.906 3.42984 14.0113 3.6842 14.0113 3.94941ZM8.81135 1.74941C6.83215 1.74941 6.50895 1.75501 5.58815 1.79581C4.96095 1.82541 4.54015 1.90941 4.14975 2.06141C3.82321 2.18171 3.52792 2.37392 3.28575 2.62381C3.03557 2.86591 2.84308 3.16121 2.72255 3.48781C2.57055 3.87981 2.48655 4.29981 2.45775 4.92621C2.41615 5.80941 2.41055 6.11821 2.41055 8.14941C2.41055 10.1294 2.41615 10.4518 2.45695 11.3726C2.48655 11.999 2.57055 12.4206 2.72175 12.8102C2.85775 13.1582 3.01775 13.4086 3.28335 13.6742C3.55295 13.943 3.80335 14.1038 4.14735 14.2366C4.54255 14.3894 4.96335 14.4742 5.58735 14.503C6.47055 14.5446 6.77935 14.5494 8.81055 14.5494C10.7905 14.5494 11.1129 14.5438 12.0337 14.503C12.6593 14.4734 13.0801 14.3894 13.4713 14.2382C13.7979 14.1179 14.0932 13.9257 14.3353 13.6758C14.6049 13.407 14.7657 13.1566 14.8985 12.8118C15.0505 12.4182 15.1353 11.9974 15.1641 11.3718C15.2057 10.4894 15.2105 10.1798 15.2105 8.14941C15.2105 6.17021 15.2049 5.84701 15.1641 4.92621C15.1345 4.30061 15.0497 3.87821 14.8985 3.48781C14.7783 3.16128 14.586 2.86599 14.3361 2.62381C14.0941 2.37363 13.7988 2.18114 13.4721 2.06061C13.0801 1.90861 12.6593 1.82461 12.0337 1.79581C11.1513 1.75421 10.8433 1.74941 8.81135 1.74941ZM8.81055 0.149414C10.9841 0.149414 11.2553 0.157414 12.1089 0.197414C12.9601 0.237414 13.5409 0.371014 14.0505 0.569414C14.5785 0.772614 15.0233 1.04781 15.4681 1.49181C15.8751 1.8916 16.1899 2.37539 16.3905 2.90941C16.5881 3.41901 16.7225 3.99981 16.7625 4.85181C16.8001 5.70461 16.8105 5.97581 16.8105 8.14941C16.8105 10.323 16.8025 10.5942 16.7625 11.447C16.7225 12.2998 16.5881 12.879 16.3905 13.3894C16.1899 13.9234 15.8751 14.4072 15.4681 14.807C15.0684 15.214 14.5846 15.5288 14.0505 15.7294C13.5409 15.927 12.9601 16.0614 12.1089 16.1014C11.2553 16.139 10.9841 16.1494 8.81055 16.1494C6.63695 16.1494 6.36575 16.1414 5.51215 16.1014C4.66095 16.0614 4.08095 15.927 3.57055 15.7294C3.03652 15.5288 2.55273 15.214 2.15295 14.807C1.74599 14.4072 1.4312 13.9234 1.23055 13.3894C1.03215 12.8798 0.898547 12.299 0.858547 11.447C0.820147 10.5942 0.810547 10.323 0.810547 8.14941C0.810547 5.97581 0.818547 5.70461 0.858547 4.85181C0.898547 3.99901 1.03215 3.41981 1.23055 2.90941C1.4312 2.37539 1.74599 1.8916 2.15295 1.49181C2.55273 1.08486 3.03652 0.770067 3.57055 0.569414C4.08015 0.371014 4.66015 0.237414 5.51215 0.197414C6.36655 0.159814 6.63695 0.149414 8.81055 0.149414Z" fill="#656C73"/>
</svg>
