<svg width="17" height="17" viewBox="0 0 17 17" fill="none" xmlns="http://www.w3.org/2000/svg">
<path d="M14.7489 0.625C15.213 0.625 15.6581 0.809374 15.9863 1.13756C16.3145 1.46575 16.4989 1.91087 16.4989 2.375V14.625C16.4989 15.0891 16.3145 15.5342 15.9863 15.8624C15.6581 16.1906 15.213 16.375 14.7489 16.375H2.4989C2.03477 16.375 1.58965 16.1906 1.26146 15.8624C0.933276 15.5342 0.748901 15.0891 0.748901 14.625V2.375C0.748901 1.91087 0.933276 1.46575 1.26146 1.13756C1.58965 0.809374 2.03477 0.625 2.4989 0.625H14.7489ZM14.3114 14.1875V9.55C14.3114 8.79347 14.0109 8.06793 13.4759 7.53298C12.941 6.99803 12.2154 6.6975 11.4589 6.6975C10.7152 6.6975 9.8489 7.1525 9.4289 7.835V6.86375H6.98765V14.1875H9.4289V9.87375C9.4289 9.2 9.9714 8.64875 10.6452 8.64875C10.97 8.64875 11.2816 8.77781 11.5114 9.00754C11.7411 9.23728 11.8702 9.54886 11.8702 9.87375V14.1875H14.3114ZM4.1439 5.49C4.53377 5.49 4.90767 5.33513 5.18335 5.05945C5.45903 4.78377 5.6139 4.40987 5.6139 4.02C5.6139 3.20625 4.95765 2.54125 4.1439 2.54125C3.75171 2.54125 3.37559 2.69705 3.09827 2.97437C2.82095 3.25169 2.66515 3.62781 2.66515 4.02C2.66515 4.83375 3.33015 5.49 4.1439 5.49ZM5.36015 14.1875V6.86375H2.9364V14.1875H5.36015Z" fill="#656C73"/>
</svg>
