<svg width="61" height="60" viewBox="0 0 61 60" fill="none" xmlns="http://www.w3.org/2000/svg">
<path d="M30.7145 0.973145C23.6474 0.972987 16.8108 3.48768 11.4281 8.06721C6.04549 12.6467 2.46813 18.9922 1.3362 25.9682C0.20427 32.9441 1.59165 40.0952 5.25008 46.1417C8.9085 52.1883 14.5992 56.7357 21.3038 58.9702C22.7919 59.2321 23.3485 58.3392 23.3485 57.5565C23.3485 56.8511 23.3128 54.5059 23.3128 52.0148C15.8336 53.3898 13.8991 50.1904 13.3038 48.5178C12.6431 46.8893 11.5961 45.446 10.2532 44.3124C9.21156 43.7559 7.72347 42.3779 10.2145 42.3422C11.1666 42.445 12.0799 42.7759 12.8768 43.307C13.6736 43.8381 14.3306 44.5536 14.7919 45.3928C15.1989 46.124 15.7461 46.7677 16.4022 47.287C17.0584 47.8063 17.8106 48.191 18.6157 48.4191C19.4208 48.6472 20.263 48.7142 21.094 48.6162C21.9251 48.5182 22.7286 48.2572 23.4586 47.8481C23.5864 46.3341 24.2614 44.9184 25.3574 43.866C18.7354 43.122 11.8157 40.5565 11.8157 29.1725C11.776 26.2146 12.8672 23.353 14.8663 21.1725C13.9583 18.6015 14.0648 15.781 15.1639 13.2856C15.1639 13.2856 17.655 12.5059 23.3485 16.3362C28.2184 14.9972 33.3595 14.9972 38.2294 16.3362C43.9199 12.4672 46.4139 13.2856 46.4139 13.2856C47.5131 15.781 47.6195 18.6015 46.7116 21.1725C48.7186 23.3482 49.811 26.213 49.7622 29.1725C49.7622 40.5922 42.8038 43.122 36.1848 43.866C36.8942 44.5864 37.4405 45.4508 37.7866 46.4008C38.1327 47.3508 38.2705 48.3641 38.1907 49.372C38.1907 53.3541 38.155 56.5535 38.155 57.5565C38.155 58.3392 38.7116 59.2678 40.1997 58.9702C46.8919 56.717 52.5657 52.1588 56.2081 46.1093C59.8505 40.0598 61.2244 32.9128 60.0847 25.9439C58.945 18.9751 55.3658 12.6381 49.986 8.06416C44.6062 3.4902 37.7759 0.976984 30.7145 0.973145Z" fill="black"/>
</svg>
