<svg width="54" height="54" viewBox="0 0 54 54" fill="none" xmlns="http://www.w3.org/2000/svg">
<path d="M50.2232 0.214397H4.50889C3.9978 0.212032 3.4913 0.310956 3.01865 0.505454C2.546 0.699952 2.11657 0.986169 1.75517 1.34757C1.39376 1.70898 1.10754 2.13841 0.913047 2.61105C0.718549 3.0837 0.619625 3.5902 0.62199 4.1013V49.8989C0.62199 51.9703 2.34818 53.7858 4.50889 53.7858H50.0446C50.556 53.7886 51.0628 53.6899 51.5358 53.4956C52.0088 53.3013 52.4385 53.0152 52.8003 52.6537C53.162 52.2923 53.4485 51.8627 53.6432 51.3899C53.8378 50.917 53.9369 50.4103 53.9345 49.8989V4.01499C54.1101 1.94356 52.3809 0.214397 50.2232 0.214397ZM16.4345 45.7501H8.57437V20.259H16.4375L16.4345 45.7501ZM12.4613 16.7174C11.859 16.7205 11.2621 16.6042 10.7052 16.3751C10.1482 16.146 9.6422 15.8087 9.21648 15.3827C8.79076 14.9567 8.45378 14.4505 8.22504 13.8933C7.99629 13.3362 7.88034 12.7393 7.88389 12.137C7.88389 9.63404 9.95532 7.55963 12.4613 7.55963C14.9672 7.55963 17.0446 9.63404 17.0446 12.137C17.0446 14.64 15.1398 16.7174 12.4613 16.7174ZM46.247 45.7501H38.3839V33.393C38.3839 30.4555 38.2976 26.5686 34.2381 26.5686C30.0893 26.5686 29.4851 29.8513 29.4851 33.134V45.7501H21.622V20.259H29.3125V23.8007H29.3988C30.5208 21.7293 33.0297 19.6549 36.9166 19.6549C44.9523 19.6549 46.4196 24.8394 46.4196 31.9257V45.7501H46.247Z" fill="black"/>
</svg>
